<svg xmlns="http://www.w3.org/2000/svg" xml:space="preserve" viewBox="0 0 48 48">
  <circle cx="24" cy="24" r="24" fill="#FFF"/>
  <circle cx="24" cy="24" r="24" fill="rgb(54, 54, 54)" />
  <path fill="#FFF" d="M19.8 37.4v-4.7h-2.6c-.6 0-1.2-.2-1.6-.7-.4-.4-.7-1-.7-1.6v-4.1h-1.5c-.5 0-.9-.2-1.1-.7-.2-.5-.2-1 0-1.5l2.6-4.6c.6-2.6 1.9-4.7 3.8-6.4s4.2-2.6 6.7-2.6c2.9 0 5.4 1 7.4 3s3 4.5 3 7.4c0 2.1-.6 4-1.8 5.6-1.2 1.7-2.8 2.9-4.7 3.9v6.9h-9.5zm4.5-10.9h2.2l.1-1.6c.3 0 .6-.2.8-.3.3-.2.5-.3.7-.5l1.6.5 1-1.8-1.1-.9c.1-.3.2-.7.2-1.1 0-.4-.1-.7-.2-1.1l1.1-.9-1-1.8-1.6.5c-.2-.2-.4-.4-.7-.5-.3-.1-.5-.3-.8-.3l-.1-1.7h-2.2l-.1 1.6c-.3.1-.5.2-.8.3-.3.1-.5.3-.7.5l-1.6-.5-1 1.8 1.1.9c-.2.4-.2.7-.2 1.1 0 .4.1.7.2 1.1l-1.2.9 1 1.8 1.6-.5c.2.2.4.4.7.5.3.2.5.3.8.3l.2 1.7zm1.1-3.2c-.7 0-1.3-.3-1.8-.8s-.8-1.1-.8-1.8.3-1.3.8-1.8 1.1-.8 1.8-.8 1.3.3 1.8.8.8 1.1.8 1.8-.3 1.3-.8 1.8c-.5.6-1.1.8-1.8.8zM22 35.2h5.1V29l1-.5c1.6-.7 2.9-1.7 3.9-3s1.6-2.8 1.6-4.5c0-2.3-.8-4.2-2.4-5.8-1.6-1.6-3.5-2.4-5.8-2.4-2.1 0-4 .7-5.6 2s-2.4 3.1-2.6 5.1L15 24.1h2.2v6.4H22v4.7z"/>
</svg>
