<svg xmlns="http://www.w3.org/2000/svg" xml:space="preserve" viewBox="0 0 48 48">
  <circle cx="24" cy="24" r="24" fill="rgb(54, 54, 54)" />
  <path fill="#FFF" d="M19.3 35.9c-.6 0-1.1-.2-1.5-.6-.4-.4-.6-.9-.6-1.5s.2-1.1.6-1.5c.4-.4.9-.6 1.5-.6s1.1.2 1.5.6c.4.4.6.9.6 1.5s-.2 1.1-.6 1.5c-.4.4-.9.6-1.5.6zm12 0c-.6 0-1.1-.2-1.5-.6-.4-.4-.6-.9-.6-1.5s.2-1.1.6-1.5c.4-.4.9-.6 1.5-.6s1.1.2 1.5.6c.4.4.6.9.6 1.5s-.2 1.1-.6 1.5c-.4.4-.9.6-1.5.6zM17.8 16.2l3.3 6.8h8.6l3.7-6.8H17.8zm-.9-1.8h17.6c.5 0 .8.2 1 .6s.2.8 0 1.3l-4 7.3c-.2.4-.5.7-.9.9-.3.2-.7.3-1.2.3h-9.1l-1.7 3.1h14.7v1.8H19c-.8 0-1.4-.3-1.8-.8-.4-.6-.4-1.2 0-1.9l1.9-3.5-4.5-9.6h-2.3v-1.8h3.5l1.1 2.3zm4.2 8.6h8.6-8.6z"/>
</svg>
