<svg xmlns="http://www.w3.org/2000/svg" xml:space="preserve" viewBox="0 0 48 48">
  <circle cx="24" cy="24" r="24" fill="rgb(54, 54, 54)"/>
  <path fill="#FFF" d="M24 37.7c-.6 0-1.2-.1-1.6-.4-.5-.3-.8-.7-.9-1.2H21c-.5 0-1-.2-1.4-.6-.4-.4-.6-.9-.6-1.4v-4.9c-1.5-1-2.7-2.2-3.6-3.8s-1.3-3.2-1.3-5.1c0-2.8 1-5.1 2.9-7 1.9-1.9 4.3-2.9 7-2.9s5.1 1 7 2.9c1.9 1.9 2.9 4.3 2.9 7 0 1.9-.4 3.5-1.3 5.1-.9 1.5-2.1 2.8-3.6 3.8V34c0 .5-.2 1-.6 1.4-.4.4-.8.6-1.4.6h-.5c-.1.5-.4.9-.9 1.2-.4.4-1 .5-1.6.5zM21 34h6v-1.5h-6V34zm0-2.9h6v-1.4h-6v1.4zm-.3-3.4h2.5V23L20 19.8l1.1-1.1 2.9 2.9 2.9-2.9 1.1 1.1-3.2 3.2v4.7h2.5c1.4-.6 2.5-1.6 3.3-3 .8-1.3 1.3-2.8 1.3-4.5 0-2.2-.8-4.1-2.3-5.6-1.5-1.5-3.4-2.3-5.6-2.3s-4.1.8-5.6 2.3-2.3 3.4-2.3 5.6c0 1.6.4 3.1 1.3 4.5s1.9 2.3 3.3 3z"/>
</svg>
